<?xml version="1.0" encoding="utf-8"?>
<!-- Generator: Adobe Illustrator 19.0.0, SVG Export Plug-In . SVG Version: 6.00 Build 0)  -->
<svg version="1.1" id="Layer_1" xmlns="http://www.w3.org/2000/svg" xmlns:xlink="http://www.w3.org/1999/xlink" x="0px" y="0px"
	 viewBox="0 0 960 216.8" style="enable-background:new 0 0 960 216.8;" xml:space="preserve">
<style type="text/css">
	.st0{stroke:#FFFFFF;stroke-miterlimit:10;}
	.st1{fill:#FFFDFD;}
</style>
<rect id="XMLID_1_" y="7.6" class="st0" width="950.2" height="193.5"/>
<g id="XMLID_16_">
	<path id="XMLID_17_" class="st1" d="M33.9,47C44,36.5,57.6,30.8,74.5,29.8c3.1,0,6.4,0.3,9.9,0.8c3.6,0.5,7.3,1.4,11.2,2.8
		c7.5,2.7,14.5,7.6,21,14.8c6.5,7.1,10.5,17.7,11.8,31.8h-21.9c-1.2-9.7-4.7-16.9-10.4-21.6c-5.8-4.7-12.1-7.1-19.1-7.1
		c-0.9,0-1.7,0-2.7,0.1c-0.9,0.1-1.8,0.2-2.7,0.4c-9.2,1.5-17.5,6.8-24.9,15.9c-7.5,9.1-10.9,21.8-10.4,38.3
		c0.5,17,4.4,29.3,11.6,36.9c7.2,7.6,15,11.5,23.5,11.7c0.2,0,0.3,0,0.4,0c0.1,0,0.2,0,0.4,0c8.5,0,16.2-3,23.2-8.9
		c7-5.9,10.7-13.8,11.2-23.7h21.9c0,15.9-5.3,28.7-15.9,38.2c-10.6,9.5-24,14.7-40.1,15.5c-1.9-0.2-3.8-0.3-5.9-0.5
		c-2-0.2-4.1-0.5-6.1-1c-12.4-2.4-23.6-9.2-33.7-20.6c-10.1-11.4-14.3-32.6-12.6-63.6C17.3,71.7,23.8,57.4,33.9,47z"/>
	<path id="XMLID_19_" class="st1" d="M154,107.2c5.3-7.4,17.5-12.5,36.5-15.4c22.7-1.9,35.9-4.2,39.4-7s5.2-8,4.8-15.6
		c0-0.8,0-1.7,0-2.5c0-0.8,0-1.8,0-2.8c0-0.5-0.1-1-0.3-1.4c-0.2-0.4-0.4-0.9-0.8-1.4c-1.9-2.5-5.7-5-11.4-7.3
		c-5.8-2.3-11.9-3.6-18.3-3.9c-0.5,0-1,0-1.4,0c-0.4,0-0.9,0-1.4,0c-7.3,0-13.9,1.7-19.7,5.2c-5.9,3.5-8.8,9.7-8.8,18.7h-20.1
		c0-0.3,0-0.6,0-0.9s0-0.5,0-0.9c-0.2-0.3-0.3-0.6-0.3-0.9s0-0.5,0-0.9c0-0.7,0-1.4,0.1-2.2c0.1-0.8,0.1-1.6,0.1-2.4
		c1-9,5.5-17.2,13.4-24.7c7.9-7.5,20.1-11.2,36.8-11.2c2.7,0,5.5,0.1,8.4,0.4c2.9,0.3,5.8,0.7,8.6,1.4c9.2,1.9,17.6,5.1,25.3,9.8
		c7.7,4.7,11.6,10.8,11.6,18.4V142c0,3.4,0.8,6.3,2.4,8.8c1.6,2.5,4.3,3.7,8,3.7c0.5,0,1.1,0,1.7-0.1c0.6-0.1,1.2-0.2,1.9-0.4v16
		l-14,2c-0.7,0.2-1.4,0.3-2.2,0.4c-0.8,0.1-1.5,0.1-2.2,0.1c-3.9,0-7-1.2-9.4-3.6c-2.4-2.4-4.2-5-5.6-7.9c-0.7-1.4-1.2-2.6-1.5-3.8
		c-0.3-1.2-0.7-2.3-1-3.3c-8.6,7-17,11.9-24.9,14.9c-8,3-15.4,4.5-22.1,4.5c-12.7,0-23-3.9-30.8-11.7c-7.8-7.8-12-16.4-12.5-25.7
		c0-0.7,0-1.4,0-2c0-0.7,0-1.4,0-2C145.5,122.8,148.7,114.6,154,107.2z M225.4,105.5c-3.6,0.8-7.6,1.4-12.2,1.9
		c-1.9,0.3-3.8,0.6-5.9,0.9s-4.1,0.5-6.1,0.6c-8.1,1.4-15.6,3.7-22.4,7c-6.8,3.3-10.2,9.3-10.2,17.9c1.5,7,4.5,11.9,9,14.9
		c4.5,3,9.5,4.5,15.1,4.5c1.2,0,2.4,0,3.7-0.1c1.3-0.1,2.5-0.3,3.7-0.6c7.3-1.2,14.1-4,20.5-8.4c6.4-4.4,10.2-9.1,11.6-14
		c0.2-0.3,0.3-0.7,0.4-1c0.1-0.3,0.1-0.7,0.1-1v-26.2C231.4,103.5,228.9,104.7,225.4,105.5z"/>
	<path id="XMLID_22_" class="st1" d="M294.8,33.6h21.9v18.1c1.5-5.6,6.5-10.5,15-14.8c8.5-4.2,17.6-6.5,27.5-6.9c0.5,0,1,0,1.4,0
		c0.4,0,0.8,0,1.1,0c10.5-0.2,19.9,2.7,28.2,8.6c8.3,5.9,12,16.3,10.9,31v98.2H379V73.8c0-7.8-2.5-13.6-7.4-17.4
		c-4.9-3.8-10.6-5.7-17-5.7c-1,0-2.1,0-3.2,0.1c-1.1,0.1-2.2,0.2-3.2,0.4c-8,1.5-15.2,5.7-21.8,12.5c-6.5,6.8-9.8,16.2-9.8,28.2
		v76.1h-21.9V33.6z"/>
	<path id="XMLID_24_" class="st1" d="M421,33.6h23.9L479,142l40.2-108.4h23.9L491,167.9H467L421,33.6z"/>
	<path id="XMLID_26_" class="st1" d="M566.6,107.2c5.3-7.4,17.5-12.5,36.5-15.4c22.7-1.9,35.9-4.2,39.4-7s5.2-8,4.8-15.6
		c0-0.8,0-1.7,0-2.5c0-0.8,0-1.8,0-2.8c0-0.5-0.1-1-0.3-1.4c-0.2-0.4-0.4-0.9-0.8-1.4c-1.9-2.5-5.7-5-11.4-7.3
		c-5.8-2.3-11.9-3.6-18.3-3.9c-0.5,0-1,0-1.4,0c-0.4,0-0.9,0-1.4,0c-7.3,0-13.9,1.7-19.7,5.2c-5.9,3.5-8.8,9.7-8.8,18.7h-20.1
		c0-0.3,0-0.6,0-0.9s0-0.5,0-0.9c-0.2-0.3-0.3-0.6-0.3-0.9s0-0.5,0-0.9c0-0.7,0-1.4,0.1-2.2c0.1-0.8,0.1-1.6,0.1-2.4
		c1-9,5.5-17.2,13.4-24.7c7.9-7.5,20.1-11.2,36.8-11.2c2.7,0,5.5,0.1,8.4,0.4c2.9,0.3,5.8,0.7,8.6,1.4c9.2,1.9,17.6,5.1,25.3,9.8
		c7.7,4.7,11.6,10.8,11.6,18.4V142c0,3.4,0.8,6.3,2.4,8.8c1.6,2.5,4.3,3.7,8,3.7c0.5,0,1.1,0,1.7-0.1c0.6-0.1,1.2-0.2,1.9-0.4v16
		l-14,2c-0.7,0.2-1.4,0.3-2.2,0.4c-0.8,0.1-1.5,0.1-2.2,0.1c-3.9,0-7-1.2-9.4-3.6c-2.4-2.4-4.2-5-5.6-7.9c-0.7-1.4-1.2-2.6-1.5-3.8
		c-0.3-1.2-0.7-2.3-1-3.3c-8.7,7-17,11.9-24.9,14.9c-8,3-15.4,4.5-22.1,4.5c-12.7,0-23-3.9-30.8-11.7c-7.8-7.8-12-16.4-12.5-25.7
		c0-0.7,0-1.4,0-2c0-0.7,0-1.4,0-2C558.1,122.8,561.3,114.6,566.6,107.2z M638,105.5c-3.6,0.8-7.6,1.4-12.2,1.9
		c-1.9,0.3-3.8,0.6-5.9,0.9s-4.1,0.5-6.1,0.6c-8.1,1.4-15.6,3.7-22.4,7c-6.8,3.3-10.2,9.3-10.2,17.9c1.5,7,4.5,11.9,9,14.9
		c4.5,3,9.5,4.5,15.1,4.5c1.2,0,2.4,0,3.7-0.1c1.3-0.1,2.5-0.3,3.7-0.6c7.3-1.2,14.1-4,20.5-8.4c6.4-4.4,10.2-9.1,11.6-14
		c0.2-0.3,0.3-0.7,0.4-1c0.1-0.3,0.1-0.7,0.1-1v-26.2C644,103.5,641.6,104.7,638,105.5z"/>
	<path id="XMLID_29_" class="st1" d="M706.4,128c3.4,0,6.9,0,10.4,0c0.3,0,0.7,0,1.1,0c0.4,0,0.9,0,1.4,0c1,10.2,4.8,17.5,11.4,21.9
		c6.6,4.4,13.8,6.7,21.6,6.9c0.2,0,0.3,0,0.4,0c0.1,0,0.2,0,0.4,0c8.1,0,15.6-1.9,22.3-5.9c6.7-3.9,10-8.9,10-15
		c0.5-7.1-2.5-12.1-9.2-15c-6.6-2.9-14.4-5.3-23.4-7.4c-1.5-0.3-3.1-0.7-4.7-1c-1.6-0.3-3.3-0.8-5-1.3c-11-2.5-21-6.5-30-12
		c-9-5.4-13-15.3-12-29.5c1-11,5-19.6,11.8-25.8c6.9-6.2,18.3-10.2,34.2-12.1c2.9,0,5.9,0.1,9.2,0.3c3.2,0.2,6.5,0.5,9.9,1
		c8.5,1.4,16.3,4.8,23.4,10.2c7.1,5.4,11,14.9,11.7,28.5h-22.1c-1.2-7.5-4.4-12.8-9.5-16c-5.2-3.2-10.8-4.8-16.9-4.8
		c-0.5,0-1,0-1.4,0c-0.4,0-0.9,0-1.4,0c-7.1,0.5-13.7,2.6-19.7,6.2c-6,3.6-9,7.8-9,12.6c-0.5,6.8,2.5,11.6,9.2,14.5
		c6.6,2.9,14.5,5.4,23.7,7.6c1.7,0.3,3.4,0.7,5.1,1.1c1.7,0.4,3.4,0.8,5.1,1.1c10.9,2.7,20.8,6.6,29.8,11.6c9,5,13.5,13.7,13.5,26.1
		c0,0.2,0,0.4,0,0.6s0,0.5,0,0.6c0,0.2,0,0.4,0,0.6s0,0.5,0,0.6c0,0.5,0,1,0,1.5s0,1,0,1.5c-0.9,9.2-5.8,17.6-14.8,25.3
		c-9,7.7-22.1,12-39.4,12.8c-0.2,0-0.4,0-0.6,0c-0.3,0-0.5,0-0.6,0c-0.3-0.2-0.6-0.3-0.8-0.3c-0.2,0-0.4,0-0.8,0
		c-2.9-0.2-5.9-0.4-9.2-0.8c-3.2-0.3-6.4-0.9-9.7-1.5c-8.6-1.9-16.6-5.9-23.8-12c-7.2-6.1-10.8-17.1-10.8-33.1
		C700,128,703,128,706.4,128z"/>
</g>
</svg>
